<?xml version="1.0" encoding="UTF-8"?>
<svg width="20px" height="28px" viewBox="0 0 20 28" version="1.1" xmlns="http://www.w3.org/2000/svg" xmlns:xlink="http://www.w3.org/1999/xlink">
    <!-- Generator: Sketch 61 (89581) - https://sketch.com -->
    <title>icon_lock copy</title>
    <desc>Created with Sketch.</desc>
    <g id="trista" stroke="none" stroke-width="1" fill="none" fill-rule="evenodd">
        <g id="Trista_Home-page" transform="translate(-541.000000, -2446.000000)">
            <g id="内容">
                <g id="ms" transform="translate(100.000000, 2346.000000)">
                    <g id="icon_lock-copy" transform="translate(437.000000, 100.000000)">
                        <rect id="Rectangle" x="0" y="0" width="28" height="28"></rect>
                        <g id="Group-2" transform="translate(4.375000, 0.875000)" fill="#F7F7F7" fill-rule="nonzero">
                            <path d="M18.3955561,10.3491379 L1.0062556,10.3491379 C0.450448513,10.3491379 3.41948692e-14,10.8143691 3.41948692e-14,11.3884164 L3.41948692e-14,25.2453854 C3.41948692e-14,25.70541 0.293166814,26.1111133 0.720482371,26.2416811 L18.6816654,26.2416811 C19.1086449,26.1110554 19.4018117,25.70541 19.4018117,25.2453854 L19.4018117,11.3883585 C19.4018117,10.8143691 18.9513632,10.3491379 18.3955561,10.3491379 Z M2.0125112,24.4693831 L2.0125112,12.427637 L17.3893565,12.427637 L17.3893565,24.4693831 L2.0125112,24.4693831 Z" id="Shape"></path>
                            <path d="M9.71443226,-1.16573418e-14 C5.80508003,-1.16573418e-14 2.625,3.40109814 2.625,7.58180497 L2.625,12.1237691 L4.65056818,12.1237691 L4.65056818,7.58180497 C4.65056818,4.58448608 6.92221499,2.14580513 9.71448864,2.14580513 C12.5067623,2.14580513 14.7784091,4.58448608 14.7784091,7.58180497 L14.7784091,12.1594828 L16.8039773,12.1594828 L16.8039773,7.58180497 C16.8039773,3.40109814 13.6234462,-1.16573418e-14 9.71443226,-1.16573418e-14 Z" id="Path"></path>
                            <path d="M9.66477273,15.75 C9.15949637,15.75 8.75,16.1986165 8.75,16.7521631 L8.75,19.424561 C8.75,19.9781076 9.15949637,20.4267241 9.66477273,20.4267241 C10.1700491,20.4267241 10.5795455,19.9781076 10.5795455,19.424561 L10.5795455,16.7521631 C10.5795455,16.1986165 10.1700491,15.75 9.66477273,15.75 Z" id="Path"></path>
                        </g>
                    </g>
                </g>
            </g>
        </g>
    </g>
</svg>