<svg xmlns="http://www.w3.org/2000/svg" viewBox="0 0 814 456" width="144px" height="88px" version="1.1" id="svg131">
   <style>
      @keyframes mask-word-fly {
         0%   {stroke-dashoffset: 3556}
         5%   {stroke-dashoffset: 3450}
         14%  {stroke-dashoffset: 3037}
         25%  {stroke-dashoffset: 2959}
         37%  {stroke-dashoffset: 2490}
         50%  {stroke-dashoffset: 2270}
         100% {stroke-dashoffset: 0}
      }
      #mask-word {
         animation: mask-word-fly 1.5s linear;
      }
   </style>
   <defs id="defs1">
      <mask id="maskPathWord">
         <path id="mask-word" stroke="white" stroke-dasharray="3556,3556" stroke-dashoffset="0" stroke-width="30" stroke-linecap="round" stroke-linejoin="round" d="M14,404.801 C49.4971369,334.414367 99.8488033,284.98794 212.735104,203.97494 C268.813328,163.73033 407,86.3712185 433.392,62.119 C440.18606,24.9245313 403.958,14 388.141,14 C322.784133,32.7503275 233.804588,245.530474 216.911,392.527 C205.03768,495.840565 291.564379,389.185 333.941,334.652 C363.008358,297.709 361.106,293.88 368.264,289.212 C373.510953,288.855756 375.489619,291.688089 374.2,297.709 C369.118,321.43559 353.96,366.907173 353.96,396.219 C355.624,396.219 368.851509,379.388783 374.626509,372.699783 C402.39207,327.564135 425.736185,285.773066 438.392,267.683 C442.439319,281.839245 428.944523,342.36318 440.925,347.241 C447.362067,355.713691 494.712201,320.71136 510.805,305.147 C518.35,308.555 518.35,314.143437 510.805,331.738437 C533.292,335.037615 559.722448,332.972295 564.305356,340.162413 C565.495616,342.029811 569.39908,349.67665 568.305356,352.036293 C565.495616,365.44541 536.546,389.542 494.939,404.007 C492.208,404.956 487.741,393.766 489.713,389.541 C510.805,306.830376 566.115838,218.940744 591.335,187.696 C607.92238,174.844757 580.634222,280.137834 598.275,351.108 C608.2,359.841 615.997,361.37 627.715,355.521 C657.017,330.979 653.90978,300.838399 641.615,276.561 C631.86535,261.475144 554.925066,268.958134 530.412066,281.117134 C528.252066,283.580134 540.223365,290.709 548.767365,289.212 C591.335,279.687885 643.60168,267.683 720.323017,249.34689 L660.077951,335.037615 C661.826951,344.287615 669.480314,345.298616 673.458314,344.789616 C680.955314,343.832616 705.904923,323.593907 725.410503,302.566315 C732.101232,298.918246 738.224357,327.795978 797.395558,351.108 C625.858911,265.552843 500.49008,208.26887 421.289065,179.256082 C411.233748,175.572634 402.718081,185.47892 395.742065,208.97494 C413.580688,212.354546 425.464,220.3629 431.392,233"></path>
      </mask>
   </defs>
   <g mask="url(#maskPathWord)">
      <path id="trista-script" fill="#262626" fill-rule="nonzero" d="M419.59049,9.693034 C430.96945,17.788537 445.94176,41.175545 445.94176,50.470382 C445.94176,70.859056 432.16723,83.152227 350.71784,133.52424 L293.22415,169.20442 L278.55128,206.98344 C245.61219,291.23663 222.55482,391.381 230.04098,418.96568 L232.1371,427.66085 L262.98007,396.778 C288.73246,370.69249 333.6494,317.32214 358.204,283.7408 C363.89348,275.64529 365.39071,275.04563 370.78074,278.64363 C374.3741,280.44263 379.16524,282.24163 381.56081,282.24163 C384.25583,282.24163 386.95084,284.04063 387.84918,286.4393 C389.34641,290.33713 386.0525,312.22497 381.26136,331.71415 C380.36302,335.01231 389.64586,320.62031 401.62371,299.9318 C428.87332,253.15779 429.17277,252.55812 444.74398,254.65695 C449.83456,255.55645 454.6257,268.74912 453.12847,278.04396 C449.53512,304.4293 446.54066,334.71248 447.43899,335.91181 C449.53512,338.01065 471.99359,322.11948 489.66092,305.92847 C501.63877,295.13447 508.22659,291.23663 512.41884,292.13613 C517.20998,293.6353 518.10832,292.7358 516.91054,287.63863 C514.81441,280.1428 519.30611,270.24829 524.99559,270.24829 C527.09171,270.24829 530.68507,266.65029 533.08064,262.15279 C542.96236,242.36378 575.30256,189.29326 582.18983,180.89793 C590.57433,171.00342 597.76104,171.00342 606.44498,180.59809 C610.93667,185.39543 611.23612,190.79243 609.73889,221.07561 L608.24166,256.15612 L635.49127,254.05729 C650.76303,253.15779 673.2215,249.55978 685.4988,245.96178 C721.13291,236.06728 726.2235,235.46761 730.41575,243.26328 C733.41021,248.96012 732.81132,251.65862 725.02571,262.45262 C720.23457,269.04896 713.34731,280.1428 709.75395,286.73913 C706.46004,293.33547 701.07001,302.03064 698.07555,306.2283 L692.98496,313.42431 L699.87222,308.62697 C703.76503,305.92847 708.85561,301.13114 711.25118,297.83297 C713.64675,294.5348 719.63568,290.9368 724.72627,289.73747 C733.11076,287.93846 735.80578,289.73747 762.15706,315.82297 C777.72826,331.11448 793.00003,344.90682 796.29393,346.40599 C799.2884,347.90515 802.58231,350.90349 803.78009,353.30216 C807.67289,363.79633 758.86315,347.60532 738.20135,331.71415 L725.02571,321.81964 L715.14399,332.31381 C691.78718,356.90016 666.33424,366.49483 657.6503,354.20166 C653.75749,348.50482 653.45805,348.50482 647.46912,356.90016 C632.19736,377.28883 605.24719,379.98733 591.47266,362.29716 L583.98651,353.00232 L580.99204,360.79799 C575.60201,375.48983 549.55018,396.17834 519.30611,409.97068 C499.54265,418.96568 489.06203,418.36601 480.97698,407.57201 C475.2875,400.07617 475.2875,397.97734 478.58141,383.58533 C480.37809,374.89016 485.16923,360.49816 489.36148,352.10282 L496.54819,336.21165 L481.27643,346.70582 C460.61463,361.09782 445.34287,365.29549 435.1617,360.19832 C425.57941,354.80132 421.38717,347.30549 421.38717,334.11281 C421.38717,324.21831 420.48883,325.11781 406.1154,349.40432 C372.87686,404.87351 357.90455,417.46651 344.72891,400.97567 C339.63833,394.0795 339.33888,392.2805 343.23168,370.09283 C345.32781,357.19999 348.02282,344.60698 348.92116,342.20832 C351.01729,336.51148 349.22061,338.31048 328.85826,363.19666 C302.80643,394.979 265.67509,432.45818 251.60111,441.75302 C234.23323,452.54702 221.05759,452.84686 212.67309,442.05285 C203.68971,430.65918 202.19247,422.86351 204.2886,391.68083 C207.28306,344.90682 227.34596,266.65029 251.00222,207.88294 C254.89502,197.98843 255.79336,192.89126 253.69724,194.0906 C251.60111,195.28993 241.12049,202.48593 230.34043,209.98177 C121.04253,285.5398 52.469324,351.80299 29.112513,404.57367 C22.524694,419.56534 18.931338,421.66418 7.851825,417.46651 C-3.2276878,413.26884 -2.6287952,404.27384 9.947949,379.98733 C42.28815,317.92181 134.81706,234.86795 256.6917,158.41042 C273.76014,147.91625 275.85626,145.21775 293.5236,111.93624 C347.12448,10.592535 381.56081,-17.291975 419.59049,9.693034 Z M518.10832,346.70582 L511.81995,362.59699 C505.83102,378.788 504.63324,384.185 507.32825,384.185 C508.22659,384.185 518.40777,378.48816 530.08617,371.59199 C541.76458,364.39599 552.54464,356.60032 554.04188,353.60199 C556.43745,349.40432 554.34132,348.50482 537.27288,347.60532 L518.10832,346.70582 Z M616.32671,287.63863 L606.14553,290.0373 L606.74443,308.0273 C607.94221,345.20665 612.13446,352.10282 625.3101,338.01065 C633.69459,329.01565 637.28795,314.32381 634.29349,300.53147 C631.29902,286.4393 628.30456,284.34046 616.32671,287.63863 L616.32671,287.63863 Z M577.09924,296.63364 L566.31917,298.43263 C560.0308,299.33214 551.64631,300.23164 547.45406,300.23164 C541.76458,300.23164 538.77012,302.6303 535.17676,310.42597 L530.38562,320.32048 L550.14908,322.11948 C565.42084,323.31881 571.11032,325.11781 574.70367,329.61531 C577.09924,332.91348 579.19537,335.31215 579.19537,335.01231 C579.49481,335.01231 578.89592,326.01731 578.29703,315.52314 L577.09924,296.63364 Z M683.40268,272.94679 C679.80932,274.74579 673.52095,276.24496 669.3287,276.24496 C659.44697,276.24496 658.24919,279.24329 662.14199,292.43597 C665.13645,302.03064 666.03479,302.6303 668.43036,298.1328 C670.22704,295.13447 675.61707,287.3388 680.70766,281.0423 C688.19382,271.44763 688.49327,269.94846 683.40268,272.94679 Z M571.11032,243.56312 L562.72582,258.25495 L570.21198,257.65529 C576.50035,257.05562 577.69813,254.95679 579.49481,243.86295 C580.39315,236.96678 580.99204,230.37044 580.39315,229.77078 C579.79426,229.17111 575.60201,235.46761 571.11032,243.56312 Z M395.63478,21.386538 C379.16524,21.386538 356.70677,47.172214 329.15771,97.54423 L316.28152,121.53091 L326.46269,115.2344 C332.15217,111.93624 345.32781,104.14057 356.10787,97.84407 C402.52205,70.559222 424.98052,54.368217 424.98052,48.071714 C424.98052,38.177211 406.41485,21.386538 395.63478,21.386538 Z"></path>
      <path id="trista-script-dot" fill="#262626" fill-rule="nonzero" d="M440.18606,238.36758 C440.18606,250.06109 432.10101,247.66242 415.63146,230.87175 C400.65915,216.17991 398.56303,209.28374 408.44475,207.48474 C422.81818,204.4864 440.18606,221.57691 440.18606,238.36758 Z"></path>
   </g>
</svg>
